<?xml version="1.0" standalone="no"?>
<!DOCTYPE svg PUBLIC "-//W3C//DTD SVG 20010904//EN"
 "http://www.w3.org/TR/2001/REC-SVG-20010904/DTD/svg10.dtd">
<svg version="1.0" xmlns="http://www.w3.org/2000/svg"
 width="1280.000000pt" height="1275.000000pt" viewBox="0 0 1280.000000 1275.000000"
 preserveAspectRatio="xMidYMid meet">
<g transform="translate(0.000000,1275.000000) scale(0.100000,-0.100000)"
fill="#4caf50" stroke="none">
<path d="M6920 12740 c-162 -20 -569 -31 -1070 -28 -476 3 -547 1 -646 -15
-276 -44 -451 -118 -587 -247 -121 -115 -188 -239 -230 -425 -54 -237 -68
-623 -42 -1110 24 -424 35 -2496 14 -2521 -12 -14 -185 -16 -1643 -13 -1712 2
-1721 2 -1941 -42 -451 -91 -684 -332 -724 -751 -5 -57 -13 -269 -16 -473 -3
-203 -10 -469 -15 -590 -20 -462 -23 -687 -12 -844 7 -86 16 -232 22 -326 22
-352 38 -434 108 -570 43 -83 168 -213 254 -263 150 -89 339 -146 583 -178
171 -22 585 -25 1095 -6 993 35 1717 40 1975 13 187 -21 293 -51 314 -90 7
-12 11 -579 14 -1587 3 -1385 5 -1581 20 -1674 53 -347 126 -532 271 -687 106
-113 210 -178 364 -227 189 -59 167 -58 1187 -67 517 -5 1001 -11 1075 -15 77
-3 163 -2 200 4 36 6 113 18 172 27 297 45 488 176 617 424 75 144 119 303
153 551 17 121 15 771 -2 955 -7 81 -16 506 -22 1130 -5 550 -10 1032 -11
1070 -1 83 17 126 66 152 30 17 133 18 1757 24 1912 6 1792 2 1979 72 112 42
188 93 281 187 79 80 127 151 166 250 63 156 84 310 84 635 1 228 7 366 42
895 33 503 29 742 -18 1065 -30 212 -94 411 -175 548 -56 95 -184 223 -272
272 -91 50 -221 91 -337 105 -68 8 -569 12 -1775 13 l-1680 2 -42 23 c-63 33
-77 60 -75 145 1 40 4 754 7 1587 7 1631 4 1762 -40 1935 -85 336 -315 539
-705 620 -190 40 -589 64 -740 45z"/>
</g>
</svg>
